Coordinates
version=1
nRows=8
nColumns=40
inDegrees=yes

Units are S.I. units (second, meters, Newtons, ...)
Angles are in degrees.

endheader
time	pelvis_tilt	pelvis_list	pelvis_rotation	pelvis_tx	pelvis_ty	pelvis_tz	hip_flexion_r	hip_adduction_r	hip_rotation_r	knee_angle_r	knee_angle_r_beta	ankle_angle_r	subtalar_angle_r	mtp_angle_r	hip_flexion_l	hip_adduction_l	hip_rotation_l	knee_angle_l	knee_angle_l_beta	ankle_angle_l	subtalar_angle_l	mtp_angle_l	lumbar_extension	lumbar_bending	lumbar_rotation	arm_flex_r	arm_add_r	arm_rot_r	elbow_flex_r	pro_sup_r	wrist_flex_r	wrist_dev_r	arm_flex_l	arm_add_l	arm_rot_l	elbow_flex_l	pro_sup_l	wrist_flex_l	wrist_dev_l
     47.63000000	     -0.47599288	     -3.94363151	      2.66463848	      1.14513629	      0.91571192	      0.58368683	     13.93039705	      5.91498021	     -8.19810404	     29.55430704	     29.55430704	     17.52489299	    -12.04816412	     -3.50616636	     35.06135949	    -13.66202638	      6.09661491	     68.49183534	     68.49183534	     11.95209584	    -19.43311990	     18.60686371	    -11.60421075	      4.33235311	      0.51020798	     30.73631447	    -15.86542563	    -10.50839394	     51.99484022	     45.58141573	      0.00000000	      0.00000000	     -7.43755636	     -8.58582751	      3.50283653	     22.49581367	     45.94667146	      0.00000000	      0.00000000
     47.65257143	     -0.45198528	     -3.78498641	      3.80185882	      1.14454177	      0.91447591	      0.58334462	     13.95282173	      5.73770297	     -8.61504175	     30.12836015	     30.12836015	     17.93075513	    -13.13002953	     -2.99050564	     35.50953691	    -13.28007520	      5.82372067	     64.35416702	     64.35416702	     12.38044329	    -19.42639895	     18.78599404	    -11.69175124	      4.24890738	      0.51204328	     33.77383843	    -16.17743891	    -10.36146800	     54.19347654	     45.51334046	      0.00000000	      0.00000000	     -9.46829428	     -8.77614735	      3.88003071	     21.80619521	     45.81967023	      0.00000000	      0.00000000
     47.67514286	     -0.55305334	     -3.65680538	      4.98942652	      1.14384889	      0.91373711	      0.58251284	     13.97848571	      5.52832158	     -9.18641495	     30.50585393	     30.50585393	     18.80273135	    -13.61088272	     -0.96533676	     35.66400245	    -12.79295145	      5.46153313	     59.40715932	     59.40715932	     11.73962092	    -19.37056069	     16.79116474	    -11.69171516	      4.24881511	      0.67467430	     36.27170354	    -17.20953044	     -8.90797303	     57.61941928	     45.35712765	      0.00000000	      0.00000000	    -11.87441784	     -9.37203286	      6.04451407	     23.34084746	     45.25516141	      0.00000000	      0.00000000
     47.69771429	     -0.73776300	     -3.37711279	      6.15097074	      1.14303435	      0.91379778	      0.58113409	     13.83052677	      5.07938020	     -9.89764226	     30.39638283	     30.39638283	     18.89029120	    -14.07608191	     -0.80739394	     35.52652792	    -11.87540759	      5.17339415	     54.04349060	     54.04349060	     11.35571794	    -19.20739453	     16.99768537	    -11.57895126	      4.09976920	      0.91806417	     39.29339419	    -17.78863593	     -9.08904951	     59.09110854	     45.33029716	      0.00000000	      0.00000000	    -13.21660225	     -9.49568256	      6.34554587	     22.99788970	     45.16887602	      0.00000000	      0.00000000
     47.72028571	     -0.96626309	     -3.19293579	      7.28418035	      1.14228559	      0.91439057	      0.57950427	     13.52915312	      4.69268615	    -10.76896133	     29.94219071	     29.94219071	     18.99922873	    -14.05425380	     -0.46484122	     34.97068601	    -11.11047858	      4.70428203	     48.04039760	     48.04039760	      8.60357437	    -18.97605204	     11.87236512	    -11.46323622	      4.08025133	      0.90916323	     42.13535223	    -18.40224371	     -8.38692787	     61.54932790	     45.25115679	      0.00000000	      0.00000000	    -15.40788296	    -10.07139020	      8.76380506	     25.31399977	     44.63991582	      0.00000000	      0.00000000
     47.74285714	     -1.27038129	     -2.94327116	      8.32936070	      1.14147647	      0.91570970	      0.57750450	     13.10191424	      4.24095067	    -11.57927397	     29.12583822	     29.12583822	     18.85199999	    -14.03050181	     -0.28192367	     34.40935864	    -10.02889874	      4.61283860	     42.42279353	     42.42279353	      7.37893890	    -18.23172056	     12.39098857	    -11.24537405	      3.96702040	      1.14951145	     45.00824536	    -18.90350005	     -8.45005608	     62.91863946	     45.22347309	      0.00000000	      0.00000000	    -16.37593115	    -10.04061174	      9.13038043	     25.34245680	     44.56136936	      0.00000000	      0.00000000
     47.76542857	     -1.58156597	     -2.83577310	      9.29513365	      1.14081306	      0.91722865	      0.57536154	     12.54285918	      3.84368728	    -12.79873026	     28.07816107	     28.07816107	     18.53971624	    -13.26232119	     -0.81772758	     33.63747060	     -9.27593279	      4.26873532	     36.75939733	     36.75939733	      4.17940421	    -17.12650784	      8.25511302	    -11.05889859	      4.04755847	      1.16757673	     47.73898881	    -19.41361866	     -7.44800133	     65.17088970	     45.14320758	      0.00000000	      0.00000000	    -18.26871161	    -10.46977246	     11.24025675	     28.12604513	     44.18743422	      0.00000000	      0.00000000
     47.78800000	     -1.90047547	     -2.74513698	     10.08461805	      1.14027305	      0.91915967	      0.57334715	     11.86188188	      3.64866903	    -13.50395042	     26.74831139	     26.74831139	     18.23245121	    -12.94394828	     -0.59961046	     33.07926178	     -8.64466095	      3.85421741	     32.13925271	     32.13925271	      2.94598667	    -14.64439860	      9.03018176	    -10.80094270	      4.03711364	      1.61806356	     50.42965454	    -19.86040501	     -7.46538807	     66.20986046	     45.12511947	      0.00000000	      0.00000000	    -18.84833658	    -10.25514946	     11.64323037	     28.39488790	     44.12564282	      0.00000000	      0.00000000
